<?xml version="1.0" encoding="utf-8"?>
<!DOCTYPE svg PUBLIC "-//W3C//DTD SVG 1.1//EN" "http://www.w3.org/Graphics/SVG/1.1/DTD/svg11.dtd" [
	<!ENTITY ns_svg "http://www.w3.org/2000/svg">
	<!ENTITY ns_xlink "http://www.w3.org/1999/xlink">
]>
<svg  version="1.1" id="Layer_1" xmlns="&ns_svg;" xmlns:xlink="&ns_xlink;" width="500" height="500"
	 viewBox="0 0 2000.318 2001" overflow="visible" xml:space="preserve">

<path fill="#000000" d="M1829 1236q156 -180 156 -429q0 -139 -24.5 -252t-68 -196t-110.5 -145.5t-145.5 -103t-179 -65.5t-205 -35t-229.5 -10t-229 10t-204.5 35t-178.5 65.5t-144.5 103t-110 145.5t-67.5 196t-24 252q0 250 156 429q-9 23 -16 55t-13 88t5 130t40 151q5 2 15.5 3.5 t47.5 -2.5t80.5 -18t116 -52t152.5 -97q137 41 376 41t375 -41q80 59 152 97.5t117.5 51.5t79.5 18t49 2l15 -3q29 -77 39.5 -151t4.5 -130.5t-12.5 -87.5t-15.5 -55zM1024 128q98 0 162.5 2t146 11.5t133 26.5t106.5 48t85.5 76t50.5 111.5t20 151.5q0 145 -120 263 q-36 36 -84 54.5t-108.5 21t-115.5 -1t-136 -9.5t-140 -6t-140 6t-136 9.5t-115.5 1t-108 -21t-83.5 -54.5q-120 -118 -120 -263q0 -85 20 -151.5t50.5 -111.5t85.5 -76t106.5 -48t133 -26.5t145.5 -11.5t162 -2zM672 738q40 0 68 -46.5t28 -113.5q0 -66 -28 -113t-68 -47 t-68 47t-28 113q0 67 28 113.5t68 46.5zM1374 738q40 0 68 -46.5t28 -113.5q0 -66 -28 -113t-68 -47t-68 47t-28 113q0 67 28 113.5t68 46.5zM1023 384q-26 0 -45 9.5t-19 22.5t19 22.5t45 9.5t45 -9.5t19 -22.5t-19 -22.5t-45 -9.5zM1118 308q5 19 22 12q7 -2 10 -9.5 t1 -15.5q-14 -46 -49 -74.5t-78 -28.5t-78 28.5t-49 74.5q-2 8 1 15.5t10 9.5q17 7 22 -12q11 -34 37 -55t57 -21t57 21t37 55z" />
</svg>
