<?xml version="1.0" encoding="utf-8"?>
<!DOCTYPE svg PUBLIC "-//W3C//DTD SVG 1.1//EN" "http://www.w3.org/Graphics/SVG/1.1/DTD/svg11.dtd" [
	<!ENTITY ns_svg "http://www.w3.org/2000/svg">
	<!ENTITY ns_xlink "http://www.w3.org/1999/xlink">
]>
<svg  version="1.1" id="Layer_1" xmlns="&ns_svg;" xmlns:xlink="&ns_xlink;" width="500" height="500"
	 viewBox="-100 -100 600.318 601" overflow="visible" xml:space="preserve">
<g id="XMLID_1_">
	<g>
		<path fill="#FFFFFF" d="M499.818,51.1v398.8c0,27.899-15.996,50.6-35.637,50.6H36.137C16.496,500.5,0.5,477.8,0.5,449.9V51.1
			c0-27.9,15.996-50.6,35.637-50.6h428.045C483.822,0.5,499.818,23.2,499.818,51.1z"/>
	</g>
	<g>
	</g>
</g>
<g id="XMLID_3_">
	<g>
		<polygon fill="#FFFFFF" points="338.626,235.812 410.256,454.308 270.986,454.308 263.784,235.812 		"/>
		<polygon fill="#FFFFFF" points="257.166,48.516 280.427,48.516 323.055,182.052 262.422,182.148 		"/>
		<polygon fill="#FFFFFF" points="244.417,48.516 239.454,182.148 177.653,182.82 221.643,48.516 		"/>
		<polygon fill="#FFFFFF" points="236.145,236.58 229.526,453.54 89.575,454.308 160.622,236.58 		"/>
		<path fill="#003399" d="M410.256,454.308l-71.63-218.496h-74.842l7.202,218.496H410.256z M10.159,59.076
			c0-26.784,15.377-48.576,34.258-48.576h411.484c18.881,0,34.258,21.792,34.258,48.576v382.848
			c0,26.784-15.377,48.576-34.258,48.576H44.417c-18.881,0-34.258-21.792-34.258-48.576V59.076z M236.145,236.58h-75.523
			L89.575,454.308l139.951-0.768L236.145,236.58z M438.772,197.028l-376.059-0.096l-0.292,16.608l39.903,0.288l-0.195,22.848
			l36.788-0.096v-23.328l222.969,0.288v23.424l36.594,0.096v-23.808h40.292V197.028z M239.454,182.148l4.963-133.632h-22.774
			l-43.99,134.304L239.454,182.148z M262.422,182.148l60.633-0.096L280.427,48.516h-23.261L262.422,182.148z"/>
		<polygon fill="#FFFFFF" points="138.918,213.252 138.918,236.58 102.13,236.676 102.325,213.828 62.422,213.54 62.714,196.932 
			438.772,197.028 438.772,213.252 398.48,213.252 398.48,237.06 361.887,236.964 361.887,213.54 		"/>
	</g>
	<g>
		<path fill="none" stroke="#FFFFFF" stroke-width="2" d="M490.159,441.924c0,26.784-15.377,48.576-34.258,48.576H44.417
			c-18.881,0-34.258-21.792-34.258-48.576V59.076c0-26.784,15.377-48.576,34.258-48.576h411.484
			c18.881,0,34.258,21.792,34.258,48.576V441.924z"/>
	</g>
</g>
</svg>
